<svg width="200" height="200" viewBox="0 0 200 200" fill="none" xmlns="http://www.w3.org/2000/svg">
<g clip-path="url(#clip0_5_234914)">
<path d="M153.898 158.287C153.898 157.758 153.675 157.411 153.243 157.23C152.993 157.133 152.617 157.077 152.102 157.077H150.626V161.248H151.364V159.607H151.935C152.325 159.607 152.603 159.649 152.756 159.746C153.021 159.899 153.146 160.219 153.146 160.706V161.165C153.146 161.165 153.174 161.192 153.174 161.206C153.174 161.206 153.174 161.234 153.174 161.248H153.884L153.856 161.192C153.856 161.192 153.828 161.081 153.814 160.97C153.814 160.859 153.814 160.747 153.814 160.664V160.358C153.814 160.15 153.745 159.927 153.591 159.705C153.438 159.482 153.202 159.343 152.881 159.302C153.146 159.26 153.341 159.19 153.494 159.107C153.772 158.926 153.912 158.648 153.912 158.287H153.898ZM152.728 158.996C152.575 159.051 152.339 159.093 152.018 159.093H151.35V157.592H151.977C152.38 157.592 152.687 157.647 152.881 157.744C153.062 157.842 153.16 158.05 153.16 158.342C153.16 158.662 153.021 158.871 152.728 158.982V158.996Z" fill="white"/>
<path d="M152.172 155.367C151.128 155.367 150.223 155.743 149.485 156.479C148.734 157.23 148.372 158.12 148.372 159.177C148.372 160.233 148.747 161.137 149.471 161.888C150.223 162.638 151.114 163.014 152.172 163.014C153.23 163.014 154.134 162.638 154.886 161.888C155.638 161.137 156 160.233 156 159.177C156 158.12 155.624 157.23 154.886 156.479C154.134 155.743 153.23 155.367 152.172 155.367ZM154.51 161.512C153.87 162.152 153.09 162.471 152.172 162.471C151.253 162.471 150.473 162.152 149.833 161.512C149.193 160.873 148.873 160.094 148.873 159.177C148.873 158.259 149.193 157.494 149.833 156.855C150.473 156.215 151.253 155.882 152.172 155.882C153.09 155.882 153.87 156.201 154.51 156.855C155.151 157.494 155.471 158.273 155.471 159.177C155.471 160.08 155.151 160.873 154.51 161.512Z" fill="white"/>
<path d="M100 37C44.7661 37 0 64.7219 0 98.9225C0 133.123 44.7661 160.859 100 160.859C155.234 160.859 200 133.137 200 98.9225C200 64.708 155.22 37 100 37ZM158.742 82.9067C155.888 80.0566 148.455 75.5799 148.455 75.5799L114.658 115.119L114.491 132.97L127.422 131.524C127.422 131.524 129.19 138.184 130.331 144.996C96.3391 151.822 70.9076 144.746 70.9076 144.746L73.4549 131.747L85.4399 132.97V114.688C85.4399 114.688 59.1314 83.8659 51.0022 73.9811C45.9215 76.1639 40.4649 80.3625 40.4649 80.3625L32.3775 70.1301C53.4104 51.6395 90.5206 49.9295 90.5206 49.9295C90.5206 49.9295 91.0356 56.5055 91.4254 64.0685C85.3563 64.6663 78.6888 65.6951 78.6888 65.6951L107.252 98.8808L132.099 69.3098L121.144 66.9047C121.144 66.9047 122.383 58.7855 123.302 52.6127C150.487 55.2125 167.678 72.0209 167.678 72.0209C167.678 72.0209 162.305 78.6802 158.769 82.9206L158.742 82.9067Z" fill="white"/>
</g>
<defs>
<clipPath id="clip0_5_234914">
<rect width="200" height="126" fill="white" transform="translate(0 37)"/>
</clipPath>
</defs>
</svg>
