<svg width="200" height="200" viewBox="0 0 200 200" fill="none" xmlns="http://www.w3.org/2000/svg">
<g clip-path="url(#clip0_5_234824)">
<g clip-path="url(#clip1_5_234824)">
<path d="M74.4131 169.518H78.418C80.9036 169.518 82.1843 170.592 82.1843 172.721C82.1843 174.849 80.9036 175.923 78.418 175.923H76.6318V179.35H74.4131V169.516V169.518ZM78.3422 173.944C79.474 173.944 79.9346 173.646 79.9346 172.721C79.9346 171.796 79.474 171.498 78.3422 171.498H76.6318V173.941H78.3422V173.944Z" fill="white"/>
<path d="M85.4618 169.518H89.6296C92.0562 169.518 93.32 170.606 93.32 172.662C93.32 174.138 92.6656 175.105 91.399 175.552L93.9885 179.35H91.3091L88.9724 175.805H87.6777V179.35H85.459V169.516L85.4618 169.518ZM89.5398 173.885C90.6126 173.885 91.0732 173.556 91.0732 172.693C91.0732 171.829 90.6126 171.5 89.5398 171.5H87.6805V173.885H89.5398Z" fill="white"/>
<path d="M97.1846 169.519H99.4033V179.353H97.1846V169.519Z" fill="white"/>
<path d="M103.571 169.519H106.95C110.374 169.519 112.25 171.293 112.25 174.436C112.25 177.579 110.374 179.353 106.95 179.353H103.571V169.519ZM106.891 177.371C108.975 177.371 109.958 176.387 109.958 174.436C109.958 172.485 108.975 171.501 106.891 171.501H105.79V177.371H106.891Z" fill="white"/>
<path d="M115.867 169.519H123.324V171.501H118.086V173.362H122.61V175.33H118.086V177.371H123.489V179.353H115.87V169.519H115.867Z" fill="white"/>
<path d="M0.400391 130.15H8.30917V141.154H18.3187V130.15H26.2275V159.67H18.3187V148.309H8.30917V159.67H0.400391V130.15Z" fill="white"/>
<path d="M29.623 144.91C29.623 135.964 36.1023 129.613 45.2609 129.613C54.4194 129.613 60.9015 135.964 60.9015 144.91C60.9015 153.856 54.4222 160.207 45.2609 160.207C36.0995 160.207 29.623 153.856 29.623 144.91ZM52.681 144.91C52.681 140.08 49.777 136.948 45.2637 136.948C40.7504 136.948 37.8464 140.08 37.8464 144.91C37.8464 149.74 40.7504 152.872 45.2637 152.872C49.777 152.872 52.681 149.74 52.681 144.91Z" fill="white"/>
<path d="M64.3447 130.15H86.3719V137.173H72.2535V141.736H84.229V148.759H72.2535V159.673H64.3447V130.153V130.15Z" fill="white"/>
<path d="M89.7678 157.837V150.457C92.537 152.47 96.292 153.589 99.8223 153.589C102.726 153.589 104.111 152.827 104.111 151.084C104.111 149.875 103.485 149.116 100.626 148.489L97.3199 147.772C91.7787 146.563 89.3662 144.013 89.3662 139.228C89.3662 132.922 93.6548 129.61 101.297 129.61C104.872 129.61 108.178 130.327 110.5 131.623V138.958C107.818 137.215 104.647 136.231 101.564 136.231C98.7495 136.231 97.3621 137.035 97.3621 138.646C97.3621 139.9 98.2102 140.479 101.159 141.106L104.468 141.823C109.784 142.987 112.107 145.537 112.107 150.457C112.107 157.033 107.995 160.207 99.9964 160.207C95.8426 160.207 92.1326 159.358 89.765 157.837H89.7678Z" fill="white"/>
<path d="M122.959 137.263H114.514V130.15H139.313V137.263H130.868V159.673H122.959V137.263Z" fill="white"/>
<path d="M142.663 130.15H155.307C162.814 130.15 166.611 133.459 166.611 139.855C166.611 144.193 164.87 147.1 161.385 148.531L168.577 159.67H159.149L153.116 149.56H150.569V159.67H142.66V130.15H142.663ZM154.773 143.212C157.41 143.212 158.57 142.228 158.57 140.035C158.57 137.842 157.408 136.861 154.773 136.861H150.575V143.212H154.773Z" fill="white"/>
<path d="M181.544 130.15H189.363L200.401 159.67H191.776L190.077 154.57H180.427L178.727 159.67H170.507L181.544 130.15ZM187.979 148.132L185.254 139.006L182.53 148.132H187.981H187.979Z" fill="white"/>
<path d="M140.475 118.311C140.523 116.267 139.882 114.583 138.52 113.166C135.748 110.282 129.817 108.556 122.242 108.429C120.111 108.393 117.274 108.331 115.769 108.294C113.252 115.303 108.284 117.597 108.065 117.696L106.009 118.618L106.088 116.363C106.121 115.376 105.582 114.603 105.124 114.128C103.681 112.629 101.01 111.769 97.7969 111.769L87.3267 111.761L86.956 110.923C86.9391 110.886 85.3299 107.248 83.3555 103.284C81.3923 99.3398 80.2465 97.5658 73.6745 96.8573C61.9546 95.5922 58.3007 87.1607 54.7648 79.0076C52.7764 74.4194 50.8947 70.087 47.6536 67.0506C41.7136 61.4896 35.5574 59.2236 26.4016 59.2236C24.0958 59.2236 21.5485 59.3811 18.827 59.6903L14.999 60.1261L17.6503 57.3259C24.475 50.1203 30.8138 45.8244 35.3355 43.3616C30.7716 43.7186 27.3733 44.34 27.3256 44.3484L23.1774 45.1187L26.0393 42.0149C32.277 35.2478 40.8626 29.7037 50.875 25.9786C60.7582 22.2956 72.1355 20.3501 83.7739 20.3501C99.1 20.3501 112.887 24.2917 124.75 32.0709C134.552 38.495 140.548 45.9931 143.25 49.8925C144.626 51.8802 144.564 54.4808 143.18 56.3813C157.992 67.0759 162.631 74.9732 162.828 75.3134L163.016 75.6395V76.0163C163.016 84.8807 157.38 91.9711 155.849 93.7338L155.835 94.254C155.481 113.245 143.011 119.366 142.48 119.619L140.425 120.591L140.475 118.314V118.311Z" fill="white"/>
<path d="M141.068 56.5978L141.613 56.0552C143.053 54.6214 143.256 52.361 142.096 50.691C136.591 42.7488 118.734 21.7559 83.774 21.7559C60.4858 21.7559 39.523 29.4479 27.0673 42.9652C27.0673 42.9652 33.8274 41.7085 41.2812 41.7085C41.6912 41.7085 42.1041 41.7113 42.5169 41.7198C42.5169 41.7198 31.4233 44.8208 18.667 58.2903C21.4783 57.9698 24.0453 57.8152 26.4016 57.8152C36.7286 57.8152 43.0365 60.8037 48.6142 66.0217C58.0059 74.813 56.5707 93.5933 73.829 95.4573C80.9571 96.2276 82.4961 98.4009 84.6165 102.655C86.6303 106.697 88.2423 110.352 88.2423 110.352L97.7969 110.361C103.83 110.361 107.607 113.181 107.492 116.411C107.492 116.411 112.547 114.148 114.763 106.863C114.763 106.863 119.209 106.973 122.265 107.023C125.326 107.074 142.127 107.493 141.879 118.342C141.879 118.342 154.091 112.562 154.431 94.2118L154.459 93.1744C154.459 93.1744 161.612 85.6061 161.612 76.0107C161.612 76.0107 156.843 67.7114 141.071 56.5978H141.068Z" fill="#004F9D"/>
<path d="M111.815 84.2482L104.192 76.4043C104.192 76.4043 107.852 79.1707 109.169 79.9186C110.489 80.6664 111.68 81.2456 114.087 81.2681C116.497 81.2906 119.218 81.3187 119.218 81.3187C119.218 81.3187 114.101 73.0418 99.7831 62.8308C99.7831 62.8308 99.8898 61.9873 99.9769 61.0455C100.064 60.1037 100.37 57.4778 97.9435 56.2183C95.5226 54.9616 84.9204 48.9198 69.7657 46.7607C69.7657 46.7607 67.9289 39.5972 59.6438 39.6028C51.6536 39.6028 50.2999 45.8526 50.2999 47.4691C50.2381 48.5797 50.6397 53.4153 55.4058 55.0319C55.4058 55.0319 54.42 53.5306 54.42 51.8072C54.42 50.0838 55.549 46.2602 60.287 46.2602C65.0249 46.2602 66.0585 50.6685 66.0585 52.7687C66.0585 56.8256 61.1716 62.3472 47.4043 58.5518C47.4043 58.5518 61.5676 65.1895 70.6476 84.4843C81.3621 83.5987 86.2517 87.2058 93.0174 94.4227C93.0174 94.4227 96.4859 98.9744 103.473 99.0756C110.486 99.1768 116.407 94.7151 116.581 89.4071C116.752 84.1189 111.818 84.2538 111.818 84.2538L111.815 84.2482ZM88.9422 61.7146C88.9422 61.7146 88.7232 64.2196 90.3465 64.9281C91.8828 65.5972 92.95 64.7819 93.2196 64.5373C95.1041 66.6318 96.368 70.6774 96.368 70.6774L92.6663 67.2728C86.4567 66.688 83.6735 65.2795 82.3872 61.7962L78.0115 59.4093C78.0115 59.4093 81.3649 58.1666 86.4764 58.6024C91.0037 58.9875 93.5426 60.2189 94.5986 61.1636L93.3853 61.6696L94.0987 63.2918C94.0987 63.2918 91.9839 61.7202 88.9394 61.7174L88.9422 61.7146Z" fill="#FFC62F"/>
<path d="M150.212 77.5176C157.514 77.9281 158.534 76.2609 158.534 76.2609C145.842 61.9114 136.428 56.9577 136.428 56.9577L137.959 55.3973C138.891 54.4471 138.872 52.9148 137.908 51.9927C135.038 49.2347 129.758 44.295 123.329 40.8341C115.724 36.7435 110.025 34.947 110.025 34.947C119.518 36.6536 125.663 38.8774 125.663 38.8774C98.648 17.4206 58.9103 27.6514 58.1998 27.8285C70.7173 27.3253 81.7407 30.207 81.7407 30.207C52.4535 29.6109 37.8184 38.2982 37.8184 38.2982C37.8184 38.2982 50.9004 35.7567 66.5804 37.2018C82.4401 38.6637 95.5221 43.3925 95.5221 43.3925C81.7295 42.4085 73.523 44.8151 73.523 44.8151C83.5691 46.457 90.0624 49.3275 97.9796 52.9205C105.95 56.5388 103.692 62.6592 103.692 62.6592C103.692 62.6592 112.306 68.5548 119.218 76.4071C124.874 82.834 124.981 86.5929 124.981 86.5929C126.447 88.5131 136.515 95.9268 145.208 93.135C153.922 90.3349 154.49 84.757 153.757 82.1761C153.024 79.6009 147.845 79.5868 147.845 79.5868L139.195 71.2341L146.188 76.1203C147.376 76.9497 148.769 77.4389 150.215 77.5204L150.212 77.5176ZM123.338 55.0768C123.338 55.0768 123.119 57.5818 124.742 58.2903C126.528 59.0718 127.685 57.832 127.685 57.832C129.146 59.1674 130.704 61.0876 131.89 63.7894L128.053 60.9021C128.053 60.9021 123.102 61.2113 120.083 59.8028C117.072 58.3999 116.988 55.7656 116.988 55.7656L111.75 52.316C111.75 52.316 122.95 50.4352 129.587 54.4189L128.432 55.4311L128.845 56.8424C128.845 56.8424 126.643 55.3242 123.338 55.074V55.0768Z" fill="#FFC62F"/>
<path d="M143.012 61.4504C142.818 61.3014 142.63 61.1552 142.444 61.0146C142.385 60.9696 142.329 60.9275 142.27 60.8825C138.602 58.102 136.429 56.9577 136.429 56.9577L137.51 55.8557L137.9 55.4592C138.833 54.509 138.838 52.9486 137.911 51.9928C135.732 49.8983 132.162 46.547 127.756 43.5388C131.502 46.2097 133.572 49.6087 134.578 51.7172C135.114 52.8418 134.904 54.1829 134.039 55.0797L131.609 57.6016C131.609 57.6016 147.151 67.7958 152.016 77.5823C152.097 77.5823 152.179 77.5823 152.257 77.5823C152.269 77.5823 152.28 77.5823 152.291 77.5823C152.367 77.5823 152.443 77.5823 152.519 77.5823C152.53 77.5823 152.538 77.5823 152.549 77.5823C152.625 77.5823 152.701 77.5823 152.774 77.5823C152.783 77.5823 152.788 77.5823 152.797 77.5823C152.872 77.5823 152.951 77.5823 153.024 77.5795C156.282 77.512 157.661 76.9245 158.209 76.5562C158.22 76.5477 158.234 76.5393 158.245 76.5309C158.245 76.5309 158.248 76.5309 158.251 76.5281C158.262 76.5196 158.273 76.514 158.282 76.5056C158.282 76.5056 158.284 76.5056 158.287 76.5027C158.296 76.4943 158.307 76.4887 158.315 76.4831C158.315 76.4831 158.318 76.4803 158.321 76.4774C158.329 76.4718 158.338 76.4634 158.346 76.4578C158.346 76.4578 158.349 76.455 158.352 76.4521C158.36 76.4465 158.366 76.4409 158.374 76.4325C158.374 76.4325 158.377 76.4297 158.38 76.4268C158.386 76.4212 158.394 76.4156 158.4 76.41C158.4 76.41 158.4 76.41 158.402 76.4072C158.422 76.3903 158.436 76.3762 158.45 76.3622C158.453 76.3594 158.456 76.3566 158.461 76.3537C158.461 76.3537 158.467 76.3481 158.467 76.3453C158.47 76.3425 158.473 76.3369 158.478 76.3341C158.478 76.3341 158.481 76.3313 158.484 76.3284C158.487 76.3256 158.489 76.32 158.492 76.3172C158.492 76.3172 158.492 76.3172 158.495 76.3144C158.498 76.3116 158.501 76.3088 158.503 76.3031C158.503 76.3031 158.503 76.3031 158.503 76.3003C158.506 76.2975 158.509 76.2919 158.512 76.2891C158.526 76.2694 158.532 76.261 158.532 76.261C152.339 69.2577 146.927 64.4952 143.006 61.4532L143.012 61.4504Z" fill="white"/>
<path d="M98.7429 56.758C98.5154 56.5584 98.2514 56.3756 97.9425 56.2154C97.8723 56.1788 97.7908 56.1367 97.7066 56.0917C97.6953 56.086 97.6841 56.0804 97.6729 56.0748C97.5689 56.0186 97.4538 55.9567 97.3274 55.8921C97.2937 55.8752 97.26 55.8555 97.2263 55.8386C97.1449 55.7965 97.0606 55.7515 96.9707 55.7037C96.9033 55.6671 96.8331 55.6306 96.7601 55.594C96.7152 55.5716 96.6702 55.5463 96.6225 55.521C96.5214 55.4675 96.4146 55.4113 96.3023 55.3551C96.2546 55.3298 96.2068 55.3045 96.1563 55.2792C96.0411 55.2201 95.9232 55.1583 95.7996 55.0936C95.7518 55.0683 95.6985 55.043 95.6507 55.0177C95.5412 54.9615 95.4289 54.9053 95.3137 54.8462C95.2547 54.8153 95.1929 54.7844 95.1312 54.7534C95.0104 54.6916 94.884 54.6297 94.7548 54.5651C94.6986 54.537 94.6425 54.5088 94.5863 54.4807C94.4346 54.4048 94.2774 54.3289 94.1173 54.2502C94.0611 54.2221 94.0049 54.194 93.946 54.1687C93.9066 54.149 93.8645 54.1293 93.8252 54.1096C95.4991 55.1217 98.6587 57.8938 97.1112 63.8484C97.1112 63.8484 107.972 74.1045 113.184 81.2258C113.465 81.2483 113.763 81.2623 114.086 81.2651C116.496 81.2876 119.217 81.3158 119.217 81.3158C119.217 81.3158 118.905 80.8125 118.226 79.9072C118.181 79.8482 118.133 79.7863 118.088 79.7245C117.105 78.4312 115.445 76.4126 112.951 73.8908C112.482 73.4157 111.982 72.9237 111.451 72.4148C110.921 71.9059 110.362 71.383 109.769 70.8432C109.177 70.3034 108.553 69.7524 107.899 69.1845C105.604 67.2024 102.911 65.0601 99.7793 62.8278C99.7793 62.8278 99.886 61.9844 99.973 61.0426C100.029 60.4381 100.175 59.1393 99.6304 57.9556C99.4338 57.5311 99.1501 57.1178 98.7401 56.758H98.7429Z" fill="white"/>
<path d="M106.281 101.001C102.7 101.325 98.1698 100.695 98.1698 100.695L92.9824 107.833L101.074 107.971C105.576 108.047 108.544 111.71 108.544 111.71C114.361 105.606 113.617 98.5244 113.617 98.5244C113.617 98.5244 109.867 100.678 106.281 101.001Z" fill="#FFC62F"/>
<path d="M141.971 96.8911C136.885 96.8799 131.346 93.7986 131.346 93.7986L124.14 103.79L130.262 103.886C141.173 104.057 144.397 112.391 144.397 112.391C152.531 103.816 151.076 95.0469 151.076 95.0469C151.076 95.0469 147.543 96.9024 141.968 96.8911H141.971Z" fill="#FFC62F"/>
<path d="M82.3919 61.7931L78.0163 59.4062C78.0163 59.4062 74.9072 71.8074 96.3699 70.6772L92.6683 67.2726C86.4587 66.6878 83.6754 65.2793 82.3891 61.796L82.3919 61.7931Z" fill="white"/>
<path d="M120.079 59.8057C117.069 58.4028 116.984 55.7685 116.984 55.7685L111.746 52.3188C111.746 52.3188 109.216 67.0507 131.886 63.7923L128.05 60.9049C128.05 60.9049 123.098 61.2142 120.079 59.8057Z" fill="white"/>
<path d="M129.586 54.4217L125.62 48.141C115.63 48.0313 111.749 52.3188 111.749 52.3188C111.749 52.3188 122.949 50.4379 129.586 54.4217Z" fill="white"/>
<path d="M103.47 99.07C110.483 99.1712 116.403 94.7095 116.577 89.4015C116.748 84.1132 111.814 84.2482 111.814 84.2482L104.192 76.4043C107.104 80.5371 106.52 86.0109 106.52 86.0109C104.798 82.8228 99.6109 80.9391 95.9907 81.3187C99.9732 84.1273 100.768 92.2438 93.0137 94.4199C93.0137 94.4199 96.4822 98.9716 103.47 99.0728V99.07Z" fill="url(#paint0_linear_5_234824)"/>
<path d="M113.617 98.5244C113.617 98.5244 109.867 100.678 106.281 101.001C102.7 101.325 98.1699 100.695 98.1699 100.695C98.1699 100.695 109.769 103.315 108.545 111.71C114.361 105.606 113.617 98.5244 113.617 98.5244Z" fill="white"/>
<path d="M151.077 95.0469C151.077 95.0469 147.544 96.9024 141.969 96.8911C136.883 96.8799 131.345 93.7986 131.345 93.7986C131.345 93.7986 147.311 103.911 144.396 112.391C152.529 103.816 151.075 95.0469 151.075 95.0469H151.077Z" fill="white"/>
<path d="M86.4813 58.5995C91.0087 58.9847 93.5476 60.2161 94.6008 61.1607L91.8905 56.0355C82.4146 55.0796 78.0137 59.4092 78.0137 59.4092C78.0361 59.4008 81.3839 58.1694 86.4757 58.6024L86.4813 58.5995Z" fill="white"/>
<path d="M145.204 93.1293C136.512 95.9238 126.449 88.5101 124.978 86.5899C126.031 87.4136 127.359 87.9084 128.803 87.9084C132.238 87.9084 135.021 85.1195 135.021 81.684C135.021 79.3055 133.684 77.2363 131.721 76.1904C131.704 76.1792 131.687 76.1651 131.667 76.1511C137.315 76.0049 143.107 80.2108 143.107 80.2108C142.834 75.8784 139.183 71.248 139.183 71.2283L147.833 79.581C147.833 79.581 153.015 79.5951 153.745 82.1703C154.478 84.7512 153.914 90.3263 145.199 93.1293" fill="url(#paint1_linear_5_234824)"/>
</g>
</g>
<defs>
<linearGradient id="paint0_linear_5_234824" x1="93.0137" y1="87.7371" x2="116.583" y2="87.7371" gradientUnits="userSpaceOnUse">
<stop stop-color="white"/>
<stop offset="1" stop-color="white"/>
</linearGradient>
<linearGradient id="paint1_linear_5_234824" x1="124.98" y1="82.488" x2="153.984" y2="82.488" gradientUnits="userSpaceOnUse">
<stop stop-color="white"/>
<stop offset="1" stop-color="white"/>
</linearGradient>
<clipPath id="clip0_5_234824">
<rect width="200" height="200" fill="white"/>
</clipPath>
<clipPath id="clip1_5_234824">
<rect width="200" height="159" fill="white" transform="translate(0.400391 20.3501)"/>
</clipPath>
</defs>
</svg>
