<?xml version="1.0" encoding="UTF-8"?>
<svg width="200px" height="200px" viewBox="0 0 200 200" version="1.1" xmlns="http://www.w3.org/2000/svg" xmlns:xlink="http://www.w3.org/1999/xlink">
    <title>oklahoma-st_BGD</title>
    <defs>
        <polygon id="path-1" points="0 0.350143266 199.658453 0.350143266 199.658453 103.690544 0 103.690544"></polygon>
    </defs>
    <g id="oklahoma-st_BGD" stroke="none" stroke-width="1" fill="none" fill-rule="evenodd">
        <g id="oklahoma-st_bgd" transform="translate(0.000000, 48.000000)">
            <g id="Group-3">
                <mask id="mask-2" fill="white">
                    <use xlink:href="#path-1"></use>
                </mask>
                <g id="Clip-2"></g>
                <path d="M175.213754,69.5558739 C172.557593,76.8842407 165.597708,81.7638968 157.802865,81.7638968 L128.582235,81.7638968 L120.605731,76.3255014 L118.161032,83.1083095 C114.805731,92.4194842 105.970774,98.626361 96.0727794,98.626361 L70.5633238,98.626361 L57.0206304,88.8126074 L59.608596,81.7638968 L7.19713467,81.7638968 L14.1031519,62.9593123 L21.0366762,62.9593123 L15.5289398,59.077937 L24.5988539,34.3793696 C27.3352436,26.9277937 34.4320917,21.974212 42.3719198,21.974212 L81.5707736,21.974212 L81.9971347,20.8137536 C85.3868195,11.5839542 94.1770774,5.44756447 104.009742,5.44756447 L129.115759,5.44756447 L142.623496,15.2383954 L140.196562,21.974212 L192.455587,21.974212 L175.213754,69.5558739 Z M147.516332,17.2126074 L148.898567,13.4475645 L130.826934,0.350143266 L103.644126,0.350143266 C92.8532951,0.350143266 81.7318052,7.08309456 78.0137536,17.2126074 L41.7851003,17.2126074 C32.0126074,17.2126074 23.2802292,23.313467 19.9174785,32.4893983 L0,86.8613181 L52.4481375,86.8613181 L51.0303725,90.7243553 L68.9696275,103.724928 L95.8951289,103.724928 C107.825788,103.724928 118.489971,96.27851 122.602292,85.07851 L122.973639,84.0687679 L127.067622,86.8613181 L157.889398,86.8613181 C167.816619,86.8613181 176.680802,80.6446991 180.061318,71.3117479 L199.659026,17.2126074 L147.516332,17.2126074 L147.516332,17.2126074 Z" id="Fill-1" fill="#FFFFFE" mask="url(#mask-2)"></path>
            </g>
            <path d="M132.552436,27.5587393 L136.363897,17.182235 L127.414327,10.6962751 L103.903152,10.6962751 C96.3335244,10.6962751 89.5673352,15.4189112 86.9581662,22.5243553 L78.0378223,46.8103152 L102.8149,66.5226361 L97.7925501,80.6280802 L81.5094556,80.6280802 L85.982808,68.2968481 L17.8326648,68.2968481 L14.8051576,76.5169054 L67.1266476,76.5169054 L63.3272206,86.8613181 L72.2653295,93.3782235 L95.9352436,93.3782235 C103.406304,93.3782235 110.084241,88.7174785 112.661318,81.704298 L121.687106,57.1335244 L97.1237822,37.5908309 L102.268768,23.4097421 L118.166762,23.4097421 L113.67106,36.0366762 L181.804585,36.0366762 L184.854441,27.5587393 L132.552436,27.5587393" id="Fill-4" fill="#FFFFFE"></path>
            <path d="M45.4481375,32.4951289 L63.2796562,32.4951289 L54.2601719,57.7713467 L36.3249284,57.7713467 L45.4481375,32.4951289 Z M58.2114613,62.9593123 C63.2011461,62.9593123 67.6590258,59.8464183 69.3799427,55.1638968 L77.5667622,32.8750716 L69.7782235,27.165043 L42.7593123,27.165043 C36.8005731,27.165043 31.4756447,30.8819484 29.4212034,36.4750716 L21.8137536,57.1787966 L29.7002865,62.9593123 L58.2114613,62.9593123 L58.2114613,62.9593123 Z" id="Fill-5" fill="#FFFFFE"></path>
            <path d="M156.270487,66.8005731 C155.284814,69.5489971 152.681375,71.3816619 149.761032,71.3816619 L136.579943,71.3816619 L147.612607,41.2103152 L133.262464,41.2103152 L122.442407,71.2355301 L130.486533,76.7117479 L157.227507,76.7117479 C163.110029,76.7117479 168.365043,73.0320917 170.376504,67.504298 L179.945559,41.2103152 L165.440115,41.2103152 L156.270487,66.8005731" id="Fill-6" fill="#FFFFFE"></path>
            <path d="M176.983954,82.9679083 L176.320344,82.9679083 L176.320344,83.8716332 L177,83.8716332 C177.343266,83.8716332 177.527221,83.687106 177.527221,83.4229226 C177.527221,83.1197708 177.318625,82.9679083 176.983954,82.9679083 M177.551862,84.3426934 L178.301433,85.4464183 L177.511175,85.4464183 L176.85616,84.4544413 L176.320344,84.4544413 L176.320344,85.4464183 L175.641261,85.4464183 L175.641261,82.3690544 L177.008023,82.3690544 C177.742693,82.3690544 178.213754,82.7438395 178.213754,83.382808 C178.213754,83.887106 177.94212,84.1988539 177.551862,84.3426934 M176.840115,81.417192 C175.378223,81.417192 174.274499,82.5770774 174.274499,83.9988539 C174.274499,85.4217765 175.369054,86.5638968 176.822923,86.5638968 C178.28596,86.5638968 179.390831,85.4057307 179.390831,83.9833811 C179.390831,82.5598854 178.294556,81.417192 176.840115,81.417192 M176.822923,86.8842407 C175.201146,86.8842407 173.938682,85.5810888 173.938682,83.9988539 C173.938682,82.4166189 175.217765,81.0985673 176.840115,81.0985673 C178.461891,81.0985673 179.725501,82.4 179.725501,83.9833811 C179.725501,85.565616 178.446418,86.8842407 176.822923,86.8842407" id="Fill-7" fill="#FFFFFE"></path>
        </g>
    </g>
</svg>