<svg width="200" height="200" viewBox="0 0 200 200" fill="none" xmlns="http://www.w3.org/2000/svg">
<g clip-path="url(#clip0_514_909)">
<path d="M146.042 118.091C146.396 117.971 146.818 117.678 146.953 117.354C147.307 116.498 147.518 115.588 147.759 114.769C146.833 114.115 145.967 113.506 144.988 112.815C144.89 112.875 144.769 112.943 144.649 113.01C142.201 114.596 139.685 115.934 137.094 116.979C135.347 117.685 133.562 118.256 131.732 118.662C128.109 119.474 124.335 119.669 120.366 119.091C119.492 118.963 119.199 119.399 119.477 120.083C119.914 121.165 120.389 122.277 121.066 123.217C121.601 123.953 122.181 124.645 122.791 125.298C123.454 126.012 124.162 126.674 124.893 127.283C125.631 127.891 126.399 128.455 127.19 128.966C127.19 128.966 127.19 128.966 127.197 128.966C127.996 129.477 128.817 129.936 129.66 130.349C129.66 130.349 129.668 130.349 129.675 130.349C135.407 133.145 142.125 133.716 148.023 132.295C146.343 129.071 145.793 125.629 146.019 122.059C141.854 121.383 139.813 119.812 139.791 117.182C140.167 117.339 140.506 117.49 140.853 117.61C142.54 118.204 144.249 118.677 146.034 118.068L146.042 118.091Z" fill="white"/>
<path d="M149.183 109.974C149.522 108.155 149.823 106.464 149.356 104.758C149.266 104.428 148.836 103.932 148.61 103.954C148.234 103.992 147.737 104.307 147.556 104.646C146.84 106.029 147.699 108.915 149.183 109.974Z" fill="white"/>
<path d="M118.393 76.6051C118.378 75.9061 118.016 75.4026 117.255 75.3951C116.427 75.38 116.133 75.9362 116.005 77.0034C116.314 77.2364 116.728 77.7925 117.203 77.8602C117.948 77.9579 118.4 77.3717 118.393 76.6126V76.6051Z" fill="white"/>
<path d="M115.146 80.934C112.623 78.762 112.299 76.7028 114.619 73.7041C112.909 73.0352 112.556 73.1705 111.825 74.7487C111.727 74.9667 111.629 75.1921 111.569 75.4251C110.786 78.1458 112.601 80.9416 115.146 80.934Z" fill="white"/>
<path d="M109.648 78.7771C109.58 77.7775 109.302 76.6652 109.483 75.628C109.671 74.5608 110.311 73.5688 110.77 72.5091C109.354 72.0506 107.856 71.5621 106.357 71.0736C105.604 73.6665 107.389 77.6197 109.648 78.7771Z" fill="white"/>
<path d="M199.42 167.709C198.494 165.89 196.663 164.755 194.63 164.755C193.56 164.755 192.513 165.078 191.617 165.687C189.516 167.115 187.399 167.897 185.328 168.009C185.019 168.024 184.71 168.032 184.402 168.032C175.748 168.032 167.809 161.426 158.635 152.422C158.876 152.129 159.102 151.836 159.336 151.55C165.308 143.937 169.775 135.287 172.607 125.84C174.55 119.354 175.672 112.522 175.943 105.54C176.086 101.82 175.936 98.0019 175.476 93.8683C174.731 87.1344 173.209 80.6785 170.965 74.6886C165.534 60.2061 156.534 48.3165 144.227 39.3429C136.326 33.586 127.333 29.3472 117.489 26.7393C115.93 26.3259 114.348 25.9501 112.759 25.6119C112.917 26.0253 113.075 26.4311 113.233 26.8445C113.339 27.1226 113.256 27.5885 113.075 27.8516C112.548 28.6332 112.239 29.4599 112.141 30.2641C113.527 30.5647 114.913 30.8879 116.291 31.2561C117.881 31.677 119.447 32.143 120.991 32.654C121.202 32.4135 121.533 32.2106 121.812 32.1805C124.26 31.91 126.723 31.7371 129.178 31.4741C129.879 31.3989 130.24 31.5793 130.496 32.2632C131.152 34.0294 131.852 35.7805 132.522 37.5391C135.618 39.17 138.601 41.0264 141.47 43.1157C142.276 43.7019 143.067 44.3107 143.85 44.9269C145.62 44.8217 147.398 44.724 149.168 44.6038C149.71 44.5662 149.996 44.709 150.094 45.2802C150.471 47.4221 150.862 49.5641 151.292 51.6985C157.935 58.6654 163.034 66.8724 166.581 76.3195C168.766 82.1365 170.144 88.2016 170.822 94.3719C171.228 98.0244 171.409 101.677 171.266 105.352C171.018 111.861 169.993 118.249 168.118 124.494C165.467 133.325 161.339 141.404 155.645 148.664C154.756 149.792 153.837 150.881 152.888 151.941C152.527 152.347 152.542 152.956 152.926 153.339C163.079 163.47 172.908 172.692 184.402 172.692C184.793 172.692 185.192 172.684 185.592 172.662C189.034 172.474 192.001 171.068 194.253 169.535C194.381 169.452 194.509 169.415 194.63 169.415C195.134 169.415 195.541 170.024 195.18 170.52C188.687 179.335 177.917 183.018 166.822 183.018C159.351 183.018 151.736 181.35 145.176 178.449L145.236 178.328C144.423 178.028 143.624 177.697 142.826 177.336C142.095 176.968 141.372 176.585 140.679 176.186C138.857 175.269 137.094 174.24 135.377 173.112C135.143 172.955 134.902 172.797 134.669 172.631C134.518 172.534 134.375 172.429 134.225 172.323C132.982 171.436 131.754 170.497 130.542 169.513C130.361 169.362 130.135 169.287 129.909 169.287C129.758 169.287 129.615 169.317 129.472 169.385C124.26 171.857 118.799 173.729 113.12 175.051C104.82 176.983 96.3923 177.704 85.4937 177.727C85.3883 177.727 85.2828 177.727 85.1774 177.727C81.9613 177.727 76.5911 177.389 71.2586 176.667C61.9794 175.412 53.0316 173 44.6637 168.746C31.8973 162.26 21.8875 152.82 14.6946 140.45C11.1546 134.362 8.56368 127.876 6.89162 121.052C4.87309 112.815 4.22535 104.465 4.9936 96.0103C6.19116 82.9407 10.424 70.9458 17.8278 60.1159C25.5705 48.7899 35.7912 40.3875 48.4296 34.9613C53.9128 32.6089 59.6144 30.9555 65.4817 29.8582C66.2424 29.7154 67.0031 29.5802 67.7713 29.4599C68.1856 27.7764 68.6977 26.123 69.3154 24.4996C67.7337 24.7251 66.1671 24.9806 64.623 25.2662C58.2059 26.4612 52.1428 28.28 46.5843 30.6699C33.1701 36.4268 22.1963 45.453 13.964 57.4855C6.19116 68.8565 1.60428 81.6781 0.331398 95.5894C-0.482038 104.48 0.195826 113.424 2.34239 122.172C4.13497 129.477 6.92927 136.421 10.6425 142.802C18.2647 155.902 28.99 166.033 42.5322 172.917C50.8172 177.126 60.006 179.869 70.6259 181.304C75.5818 181.973 81.2909 182.409 85.1698 182.409H85.5238C97.2885 182.387 105.867 181.545 114.182 179.613C119.485 178.381 124.591 176.69 129.389 174.578C130.112 175.134 130.813 175.653 131.506 176.141L131.536 176.164L131.573 176.186L131.724 176.292C131.822 176.359 131.92 176.427 132.018 176.494C132.191 176.615 132.364 176.727 132.53 176.848L132.741 176.991L132.771 177.013L132.801 177.036C134.737 178.306 136.59 179.373 138.442 180.312C138.57 180.388 138.698 180.455 138.827 180.53L138.721 180.733L143.263 182.74C150.516 185.942 158.876 187.708 166.8 187.708C180.673 187.708 192.084 182.59 198.93 173.308C200.136 171.669 200.316 169.528 199.397 167.716L199.42 167.709Z" fill="white"/>
<path d="M82.0894 24.7927C82.0743 24.943 82.0818 25.0858 82.0818 25.2286C82.0818 25.2737 82.0818 25.3188 82.0818 25.3564C82.0894 25.5142 82.112 25.6721 82.1421 25.8299C82.1421 25.8524 82.1421 25.875 82.1496 25.8975C82.1873 26.0629 82.2325 26.2207 82.2927 26.3785C82.2927 26.3936 82.2927 26.4086 82.3078 26.4236C82.368 26.589 82.4434 26.7543 82.5262 26.9121C82.5262 26.9121 82.5262 26.9272 82.5337 26.9347C82.6241 27.1 82.722 27.2654 82.835 27.4382C82.835 27.4382 82.835 27.4382 82.835 27.4457C82.948 27.6186 83.076 27.7839 83.2116 27.9568C83.2116 27.9568 83.2417 28.0019 83.2643 28.0244C87.5575 33.2628 92.4532 37.8623 97.6878 42.1312C108.18 50.6764 119.636 57.5832 132.417 62.1977C133.133 62.4532 133.584 62.3781 134.149 61.852C137.727 58.5602 141.312 55.2759 144.965 52.0667C145.801 51.3377 145.922 50.6388 145.537 49.6467C143.941 49.5114 143.948 49.519 142.871 50.5937C142.525 50.9394 142.148 51.2475 141.779 51.5557C136.153 56.3356 127.589 52.9385 126.241 46.415C125.827 44.4159 126.143 42.5144 126.625 40.5679C126.798 39.8539 126.482 38.7567 125.977 38.2456C125.676 37.945 124.35 38.2005 123.846 38.6289C120.253 41.6802 116.186 42.2815 111.938 40.2147C107.908 38.2531 105.046 34.0745 106.251 29.1743C106.267 29.1142 106.282 29.0616 106.297 29.0015C106.372 28.7083 106.455 28.4228 106.568 28.1221C106.628 27.9493 106.651 27.7614 106.651 27.5735C106.651 27.5585 106.651 27.5434 106.651 27.5284C106.636 26.8971 106.364 26.1756 106.267 25.5217C106.259 25.4541 106.138 25.3564 106.041 25.3263C106.01 25.3113 105.98 25.3113 105.958 25.3113C105.717 25.3564 105.468 25.3714 105.227 25.379C104.979 25.3865 104.738 25.3865 104.497 25.4165C104.007 25.4691 103.525 25.6044 103.058 26.0403C102.907 26.1831 102.749 26.3184 102.591 26.4537C102.561 26.4762 102.531 26.4988 102.501 26.5213C102.373 26.6265 102.237 26.7318 102.101 26.8295C102.071 26.852 102.041 26.8745 102.004 26.8971C101.868 26.9948 101.732 27.085 101.589 27.1752C101.567 27.1902 101.544 27.2052 101.521 27.2203C101.371 27.3105 101.22 27.4006 101.062 27.4833C101.047 27.4908 101.032 27.4983 101.017 27.5059C100.851 27.5885 100.685 27.6712 100.52 27.7539C100.52 27.7539 100.505 27.7539 100.497 27.7614C100.324 27.8441 100.143 27.9117 99.9624 27.9793C99.5933 28.1221 99.2167 28.2349 98.8326 28.3326C96.8969 28.806 94.8483 28.6708 92.9879 27.9944C92.1368 27.6862 91.3234 27.2654 90.5853 26.7318C90.0957 26.3785 89.6287 25.9802 89.2069 25.5368C89.2069 25.5368 89.1994 25.5293 89.1919 25.5217C88.5517 24.8529 88.0019 24.0788 87.565 23.2145C87.4972 23.0867 87.437 22.9589 87.3767 22.8237C86.2093 20.2233 86.2319 17.5853 87.1357 14.9173C87.4445 14.0004 87.2035 12.843 86.6687 12.7227C85.9155 12.5574 85.3205 13.0685 85.0268 14.1357C84.1832 17.1945 83.4526 20.2984 82.4509 23.3047C82.4283 23.3798 82.4057 23.455 82.3831 23.5301C82.3078 23.7556 82.2475 23.966 82.2023 24.1765C82.1798 24.2967 82.1647 24.4094 82.1496 24.5222C82.1346 24.6048 82.1195 24.695 82.112 24.7777L82.0894 24.7927Z" fill="white"/>
<path d="M68.9087 51.2551C68.7882 50.9845 68.6676 50.6989 68.5471 50.4208C68.4643 50.2179 68.3814 50.0225 68.2986 49.8196C68.1404 49.4137 67.9898 49.0004 67.8467 48.587C67.794 48.4442 67.7488 48.2939 67.696 48.1511C67.5303 47.6551 67.3722 47.1516 67.2215 46.6405C66.8901 46.6555 66.5437 46.6931 66.1821 46.7607C65.8206 46.8284 65.4516 46.9261 65.0674 47.0463C64.6833 47.1666 64.2992 47.3094 63.9 47.4747C63.5008 47.6401 63.1016 47.828 62.6949 48.0309C62.2882 48.2338 61.8739 48.4593 61.4672 48.7073C60.8496 49.068 60.232 49.4739 59.6219 49.9023C59.4186 50.0451 59.2152 50.1954 59.0118 50.3457C58.6127 50.6463 58.2135 50.962 57.8218 51.2851C56.8502 52.0893 55.9238 52.9611 55.0953 53.8554C54.4325 54.5694 53.83 55.2984 53.3103 56.0199C53.0542 56.3807 52.8132 56.7414 52.5947 57.1022C52.3763 57.4629 52.188 57.8162 52.0223 58.1619C51.8566 58.5076 51.721 58.8533 51.6081 59.1915C51.5553 59.3568 51.5102 59.5222 51.465 59.6875C51.7512 59.6725 52.0374 59.6575 52.3236 59.6499C52.3989 59.6499 52.4742 59.6499 52.5495 59.6499C52.783 59.6499 53.009 59.6424 53.2349 59.6424C53.2952 59.6424 53.3555 59.6424 53.4157 59.6424C54.0183 59.6424 54.6133 59.6725 55.1932 59.7251C55.1932 59.7251 55.1932 59.7251 55.2007 59.7251C55.502 59.7552 55.7958 59.7927 56.0895 59.8378H56.1046C58.2511 60.176 60.2847 60.9802 62.1074 62.6487C61.9568 62.7689 55.6527 62.6487 50.9001 66.8724C42.4795 75.365 38.1864 85.744 37.0717 97.5134C36.68 101.624 36.7629 105.75 37.275 109.869C37.7796 113.905 38.6533 117.843 40.0919 121.646C44.8897 134.332 53.5739 143.321 65.9939 148.709C70.9046 150.836 76.1467 152.129 81.4717 152.67C83.7313 152.903 85.9682 153.016 88.1977 153.016C94.7729 153.016 101.198 151.971 107.426 149.656C108.134 149.393 108.308 148.461 107.75 147.95C99.8795 140.69 91.9334 135.084 82.9706 135.084C82.5789 135.084 82.1797 135.091 81.7805 135.114C78.1502 135.317 75.0471 136.865 72.7574 138.488C72.6219 138.586 72.4863 138.624 72.3507 138.624C71.8385 138.624 71.4243 138 71.8235 137.504C73.8797 134.933 76.1919 132.799 78.7 131.055C83.543 127.688 89.1165 125.787 94.9838 125.103C93.2741 123.465 91.6774 121.698 90.2011 119.774C86.4729 114.904 83.8895 109.516 82.9932 103.398C82.9028 102.759 82.8651 102.113 82.7823 101.271C78.9787 103.037 75.7174 105.352 72.2603 107.81C71.4168 101.549 71.8687 95.5593 73.6688 89.6671C75.4915 83.6923 78.7226 78.6042 83.3848 74.5533C82.24 73.426 80.9897 72.4565 80.0859 71.239C79.1821 70.0214 78.6247 68.5484 78.0674 67.0828C81.8031 71.3291 86.4277 73.4786 92.1971 73.6364C84.3338 80.0472 79.054 87.8935 77.2991 98.1823C81.7128 95.2437 86.0963 92.9514 91.0673 92.245C90.5551 94.169 89.8999 96.0028 89.5835 97.8892C88.7174 103.173 89.6965 108.231 91.8054 113.101C92.6264 115.002 93.5904 116.806 94.6524 118.534C95.9027 120.752 97.1455 122.488 98.6066 124.043C98.8175 124.306 99.0284 124.562 99.2468 124.817C99.2845 124.817 99.3222 124.817 99.3673 124.817C100.851 126.275 102.561 127.621 104.707 129.139C109.987 132.867 116.999 135.565 122.166 135.459C114.808 129.101 110.522 123.292 106.605 116.099C106.312 115.423 106.033 114.739 105.777 114.048C105.483 113.243 105.22 112.439 104.986 111.628C104.512 109.997 104.158 108.343 103.924 106.652C103.804 105.811 103.721 104.954 103.66 104.097C103.57 102.804 103.555 101.497 103.6 100.166C103.615 99.723 103.638 99.2795 103.668 98.8286C103.924 99.0015 104.18 99.1743 104.436 99.3472C106.214 100.527 107.961 101.519 110.16 101.707C110.063 101.091 110.01 100.482 110.002 99.8958C109.987 98.1297 110.417 96.4988 111.426 95.0107C111.591 94.7702 111.765 94.5372 111.938 94.3042C113.181 92.7034 114.732 91.4408 116.743 90.4788C116.51 90.9147 116.291 91.3506 116.088 91.7865C115.885 92.2224 115.704 92.6508 115.531 93.0792C115.192 93.936 114.921 94.7777 114.725 95.6119C114.529 96.4462 114.393 97.2654 114.333 98.077C114.318 98.28 114.31 98.4829 114.303 98.6858C114.288 99.2871 114.303 99.8883 114.371 100.482C114.499 101.669 114.793 102.827 115.259 103.969C115.418 104.353 115.591 104.728 115.787 105.104C115.885 105.292 115.983 105.48 116.096 105.668C116.306 106.044 116.54 106.412 116.796 106.78C117.429 107.697 118.189 108.599 119.078 109.486C118.604 109.613 118.137 109.696 117.677 109.734C117.368 109.764 117.067 109.771 116.758 109.764C115.998 109.749 115.252 109.644 114.514 109.471C114.069 109.373 113.633 109.245 113.188 109.11C112.751 108.975 112.307 108.824 111.87 108.666C112.254 109.147 112.676 109.576 113.113 109.974C113.377 110.215 113.648 110.44 113.934 110.651C114.122 110.793 114.318 110.929 114.514 111.056C115.109 111.447 115.726 111.785 116.382 112.086C116.796 112.274 117.21 112.447 117.624 112.612C117.753 112.665 117.881 112.71 118.009 112.755C118.302 112.868 118.604 112.973 118.897 113.071C119.033 113.116 119.169 113.161 119.304 113.206C119.643 113.311 119.982 113.409 120.313 113.491C120.396 113.514 120.472 113.537 120.554 113.559C120.954 113.657 121.353 113.747 121.759 113.822C121.91 113.852 122.053 113.875 122.204 113.897C122.467 113.942 122.731 113.988 122.995 114.018C123.16 114.04 123.334 114.063 123.499 114.085C123.755 114.115 124.011 114.138 124.268 114.16C124.426 114.175 124.584 114.19 124.742 114.198C125.111 114.22 125.488 114.236 125.857 114.236C126.053 114.236 126.248 114.236 126.444 114.236C126.648 114.236 126.851 114.236 127.054 114.22C127.273 114.213 127.484 114.205 127.702 114.19C127.883 114.183 128.064 114.168 128.237 114.153C128.463 114.13 128.696 114.115 128.922 114.093C128.99 114.085 129.065 114.07 129.133 114.063C129.668 114.003 130.203 113.92 130.73 113.822C130.858 113.8 130.986 113.777 131.114 113.755C131.378 113.702 131.641 113.649 131.897 113.597C132.018 113.574 132.138 113.544 132.259 113.514C132.537 113.454 132.809 113.386 133.08 113.319C134.767 112.883 136.454 112.312 138.134 111.628C138.164 111.613 138.201 111.605 138.232 111.59C138.232 111.59 138.239 111.59 138.247 111.59C138.48 111.492 138.706 111.395 138.932 111.282C139.821 110.846 140.634 110.297 141.32 109.598C141.666 109.253 141.982 108.869 142.261 108.449C142.404 108.238 142.532 108.013 142.653 107.787C143.285 106.585 143.526 105.563 143.368 104.668C143.233 103.909 142.803 103.248 142.073 102.669C141.704 102.376 141.267 102.105 140.747 101.85C140.431 101.692 140.13 101.527 139.828 101.354C139.768 101.316 139.7 101.279 139.64 101.241C138.201 100.377 136.974 99.2645 136.19 97.7313C135.754 96.8746 135.52 95.8224 135.535 94.8604C135.543 94.3268 136.145 93.6353 136.665 93.3197C137.35 92.9063 137.682 93.6579 137.983 94.1464C138.066 94.2742 138.149 94.3944 138.239 94.5147C138.277 94.5598 138.322 94.6049 138.36 94.65C138.412 94.7101 138.465 94.7702 138.518 94.8228C138.563 94.8679 138.616 94.9055 138.661 94.9506C138.714 94.9957 138.766 95.0408 138.827 95.0859C138.879 95.1234 138.924 95.1535 138.977 95.1911C139.037 95.2286 139.098 95.2662 139.158 95.2963C139.211 95.3264 139.263 95.3489 139.316 95.3714C139.384 95.4015 139.444 95.4241 139.512 95.4466C139.565 95.4616 139.617 95.4842 139.678 95.4992C139.753 95.5218 139.828 95.5368 139.904 95.5518C139.956 95.5593 140.009 95.5744 140.062 95.5819C140.145 95.5894 140.235 95.5969 140.325 95.5969C140.371 95.5969 140.416 95.5969 140.468 95.5969C140.604 95.5969 140.747 95.5894 140.898 95.5669C141.779 95.4466 142.675 95.2286 143.489 94.8754C144.423 94.4696 145.214 94.2366 145.937 94.2065C146.178 94.199 146.419 94.2065 146.652 94.2441C147.119 94.3117 147.571 94.4771 148.03 94.7326C148.49 94.9882 148.964 95.3489 149.477 95.8073C150.561 96.7844 151.051 96.7393 152.068 95.5067C151.917 95.2888 151.759 95.0633 151.601 94.8303C151.548 94.7552 151.495 94.68 151.442 94.5973C145.191 85.7966 138.924 77.0109 132.696 68.1951C132.613 68.0749 132.53 67.9622 132.44 67.8569C131.829 67.1054 131.129 66.6244 130.142 66.2937C129.291 66.0081 128.44 65.7075 127.597 65.4069C127.416 65.3392 127.235 65.2716 127.047 65.2115C126.263 64.9259 125.48 64.6328 124.704 64.3397C124.659 64.3246 124.614 64.3021 124.569 64.2871C118.122 61.7919 112.006 58.8082 106.221 55.3435C104.112 54.0809 102.049 52.7507 100.03 51.3528C100.008 51.3377 99.985 51.3227 99.9548 51.3002C99.3297 50.8642 98.7045 50.4283 98.0869 49.9774C98.0191 49.9323 97.9589 49.8872 97.8911 49.8346C97.281 49.3912 96.6785 48.9478 96.0835 48.4968C96.0458 48.4668 96.0082 48.4367 95.9705 48.4067C94.0574 46.9562 92.1895 45.4455 90.3593 43.8748C90.2463 43.7771 90.1409 43.6869 90.0279 43.5892C89.5459 43.1683 89.0713 42.7474 88.5968 42.3266C88.4613 42.2063 88.3257 42.0786 88.1901 41.9583C87.7231 41.5299 87.2562 41.1015 86.7892 40.6731C86.6762 40.5679 86.5557 40.4552 86.4427 40.35C85.2979 39.2677 84.1681 38.1629 83.0534 37.0206C82.9329 36.8928 82.8049 36.765 82.6844 36.6373C82.2701 36.2089 81.8559 35.773 81.4416 35.3371C81.2684 35.1492 81.0876 34.9613 80.9144 34.7734C80.5529 34.3826 80.1913 33.9918 79.8298 33.5935C79.649 33.3906 79.4683 33.1876 79.28 32.9847C78.9109 32.5789 78.5494 32.158 78.1879 31.7446C78.0297 31.5643 77.8715 31.3764 77.7134 31.196C77.2012 30.6023 76.689 30.001 76.1844 29.3923C75.8003 28.9263 75.4237 28.4603 74.9793 27.9192C74.8061 28.2424 74.6931 28.4152 74.6178 28.5956C73.3524 31.5943 72.6294 34.6607 72.4938 37.7872C72.4787 38.1404 72.4712 38.4936 72.4712 38.8469C72.4712 40.117 72.5691 41.4022 72.7725 42.6873C72.8252 43.0105 72.8779 43.3336 72.9382 43.6568C72.9382 43.6718 72.9382 43.6869 72.9457 43.7019C73.0286 44.1378 73.1265 44.5737 73.2244 45.0021C73.2771 45.2201 73.3374 45.438 73.3901 45.6484C73.4504 45.8664 73.5031 46.0843 73.5633 46.3023C73.6462 46.5954 73.7366 46.881 73.8269 47.1666C73.8721 47.3019 73.9098 47.4372 73.9475 47.5724C74.0604 47.9106 74.1734 48.2413 74.2939 48.572C74.324 48.6547 74.3466 48.7298 74.3768 48.8125C74.5123 49.1808 74.6554 49.5415 74.8061 49.8947C74.8211 49.9323 74.8362 49.9774 74.8513 50.015C75.0094 50.3983 75.1751 50.7816 75.3484 51.1574C75.3484 51.1724 75.3634 51.1799 75.3634 51.1949C75.5442 51.5857 75.7325 51.969 75.9283 52.3523C76.1241 52.7356 76.3275 53.1189 76.5384 53.4947C77.3518 54.9677 78.2632 56.3882 79.2649 57.756C79.5662 58.1694 79.8675 58.5752 80.1838 58.9735C80.1913 58.9886 80.2064 58.9961 80.2139 59.0111C80.5077 59.3869 80.8089 59.7627 81.1102 60.1309C81.1403 60.1685 81.178 60.2136 81.2081 60.2512C81.4943 60.5894 81.7805 60.9276 82.0743 61.2658C82.127 61.3259 82.1722 61.386 82.2249 61.4462C82.5639 61.8295 82.9028 62.2052 83.2493 62.581C83.9798 63.3702 84.7782 64.0992 85.5465 64.8582C84.9364 64.723 84.3489 64.5726 83.7689 64.4073C83.4752 64.3246 83.2041 64.2269 82.9179 64.1367C82.6467 64.0466 82.3605 63.9639 82.0969 63.8662C81.7278 63.7309 81.3663 63.5806 81.0123 63.4378C80.8541 63.3702 80.6884 63.31 80.5303 63.2424C80.1235 63.062 79.7244 62.8666 79.3327 62.6712C79.2423 62.6261 79.1519 62.581 79.0616 62.5359C78.6322 62.3105 78.218 62.07 77.8188 61.8219C77.7736 61.7919 77.7284 61.7693 77.6908 61.7468C77.2615 61.4762 76.8472 61.1982 76.4405 60.905C76.4254 60.8975 76.4104 60.8825 76.3953 60.875C73.9173 59.0788 71.9063 56.8091 70.3171 54.1335C70.2569 54.0358 70.1966 53.9306 70.1364 53.8254C69.8878 53.3895 69.6393 52.9385 69.4133 52.4801C69.3304 52.3148 69.2401 52.1494 69.1572 51.9766C69.0442 51.7436 68.9388 51.5106 68.8333 51.2776L68.9087 51.2551ZM81.886 50.4885C81.8333 50.3607 81.7956 50.2329 81.66 49.8647C83.302 50.511 84.7707 51.0972 86.2469 51.6759C83.0007 47.858 81.1027 43.4539 79.9051 38.6815C84.1757 44.9044 89.0864 50.5185 95.3529 55.321H90.1936C90.1333 55.3886 90.0731 55.4487 90.0053 55.5164C91.8506 57.0571 93.6055 58.733 95.5638 60.1309C104.384 66.4215 114.28 70.2093 124.863 72.2536C126.851 72.6368 128.154 73.4185 129.276 75.1245C132.47 79.9946 135.867 84.7369 139.181 89.5319C139.437 89.9001 139.67 90.2759 140.032 90.8245C139.535 90.7043 139.218 90.6592 138.917 90.5615C134.684 89.1711 131.596 92.5531 132.492 96.6792C132.997 99.0015 134.292 100.475 137.124 102.278C136.386 102.196 135.61 102.226 134.91 102.015C133.2 101.489 131.4 101.068 129.849 100.219C126.444 98.3476 125.186 95.2136 125.48 91.4634C125.601 89.8851 126.022 88.3294 126.279 86.7661C126.527 85.2405 126.565 83.7298 125.751 82.3169C125.352 81.6255 124.915 81.4 124.064 81.663C116.939 83.835 109.791 85.9544 102.651 88.0889C102.621 88.0438 102.583 87.9987 102.553 87.9536C105.107 86.3828 107.667 84.8046 110.364 83.1436C109.844 82.8731 109.49 82.6777 109.129 82.4973C104.203 79.9871 101.484 75.2297 101.913 69.7283C101.973 69.0068 101.612 68.7588 101.107 68.4732C96.558 65.9029 92.2422 62.9944 88.4462 59.3869C85.7348 56.8166 83.2944 54.0283 81.8935 50.4885H81.886ZM54.8242 119.887C54.5304 119.045 54.2593 118.196 54.0107 117.339C53.8751 116.866 53.7396 116.4 53.5663 115.799C51.2691 117.204 49.6498 119.203 47.8949 121.3C46.2529 117.587 44.0009 111.665 44.2495 103.413C44.5583 93.2521 46.4864 88.1565 48.038 84.2033C48.038 84.2033 46.6069 91.6888 47.5785 100.677C48.1585 106.066 49.3561 109.411 49.9661 110.951C50.0565 111.169 50.1695 111.38 50.3051 111.673C50.5762 111.425 50.7871 111.222 51.0055 111.026C52.7002 109.471 55.1179 108.524 57.0988 108.351C57.1063 108.501 57.0686 113.552 58.1382 118.527C59.3282 124.081 62.1074 130.755 62.1677 130.905C59.155 127.688 56.5113 123.968 54.8242 119.895V119.887ZM72.9231 65.0236C60.6086 77.0786 59.6069 91.531 63.9226 107.389C57.6411 100.039 54.4174 91.997 56.7598 82.5198C58.9139 73.8168 64.5477 68.0899 72.9231 65.0236Z" fill="white"/>
</g>
<defs>
<clipPath id="clip0_514_909">
<rect width="200" height="175" fill="white" transform="translate(0 12.7002)"/>
</clipPath>
</defs>
</svg>
