<svg width="200" height="200" viewBox="0 0 200 200" fill="none" xmlns="http://www.w3.org/2000/svg">
<path d="M180.768 147.156L180.678 147.096C180.347 146.795 180.016 146.554 179.655 146.283C179.534 146.163 179.414 146.043 179.263 145.952C179.143 145.832 179.023 145.742 178.932 145.652C178.752 145.471 178.541 145.29 178.421 145.14C178.12 144.779 177.819 144.358 177.578 143.906C177.097 143.003 176.766 141.98 176.435 140.897L176.405 140.776C175.622 138.218 174.689 135.751 173.666 133.464C171.469 128.559 168.851 124.677 165.721 121.607C162.893 118.838 159.522 116.341 155.038 113.723C151.608 111.736 148.358 110.141 145.108 108.847C145.378 108.667 145.679 108.456 145.95 108.246C146.973 107.493 147.997 106.681 148.929 105.838C151.096 103.912 152.781 102.046 154.045 100.12C154.587 99.3079 155.038 98.4652 155.46 97.6527C155.61 97.3518 155.791 97.0509 155.971 96.7499C156.543 95.7268 157.055 94.6133 157.566 93.1989C157.957 92.1757 158.349 91.0623 158.8 89.6479C158.95 89.1965 159.071 88.7752 159.191 88.3539C159.402 87.6317 159.582 86.9696 159.853 86.3376C160.756 84.2913 161.9 82.6663 163.284 81.4926L163.374 81.4024C163.795 81.0713 164.397 80.5597 164.638 79.7171C164.939 78.6338 164.036 77.7912 163.495 77.3097C163.464 77.2796 163.434 77.2495 163.404 77.2194C162.592 76.4069 161.9 75.5943 161.328 74.7818C160.064 73.0063 159.191 70.9901 158.258 68.8534L158.138 68.6127C157.356 66.8071 156.242 64.4598 154.587 62.263C152.089 58.9528 148.719 55.9735 143.964 52.8739C139.57 50.015 134.996 47.7881 130.452 46.2835C124.734 44.4177 118.505 43.4547 111.854 43.4848C107.762 43.4848 103.458 43.876 99.125 44.5983C96.5671 45.0196 93.979 45.5612 91.4211 46.1932C90.2174 46.4941 88.8933 46.8252 87.5993 47.2766C87.0275 47.4872 86.4256 47.6979 85.7937 47.9687C85.6131 48.0289 85.4325 48.1192 85.2821 48.2094C84.921 48.39 84.5899 48.5405 84.2589 48.5706C84.1084 48.5706 83.6871 48.0289 83.5066 47.7581C83.3561 47.5775 83.2357 47.3969 83.0853 47.2164C82.363 46.3437 81.5204 45.471 80.4973 44.4177C78.5412 42.4616 76.7657 40.8366 75.0504 39.4523C73.1545 37.9175 71.1382 36.4731 69.0919 35.2091C67.6173 34.3063 66.0826 33.4938 64.608 32.7114C63.9159 32.3503 63.2237 31.9892 62.5316 31.598C62.1103 31.3572 61.0269 30.8456 60.0037 30.8456C59.7028 30.8456 59.4019 30.9058 59.131 30.9961C58.7097 31.1466 57.7166 31.6882 58.0176 33.4035C58.168 34.2763 58.5592 34.848 58.9505 35.3295C60.4852 37.1953 61.9598 39.1213 63.314 41.1375C69.0016 49.4433 72.8837 58.1703 74.8397 67.0479C76.8861 76.3768 76.6754 86.127 74.2378 95.2152C73.004 99.8194 71.1382 104.333 68.7007 108.577C68.1289 109.6 67.497 110.563 66.7747 111.706L66.6543 111.917C66.4437 112.278 66.2029 112.609 65.9923 112.88C65.9321 112.94 65.8719 113 65.8117 113.06C65.4807 113.392 64.9691 113.903 64.8186 114.686C64.5779 115.859 65.3603 116.732 65.6312 117.063C65.9321 117.424 66.2631 117.815 66.5942 118.327C67.3766 119.44 68.0988 120.524 68.7007 121.457C70.9878 124.977 72.8536 128.589 74.2378 132.2C75.3814 135.209 76.555 138.67 76.7657 142.221C74.93 141.95 73.0341 141.589 71.1984 140.927C69.0317 140.175 67.0456 139.121 65.27 137.827C61.9598 135.39 59.3417 132.019 57.9574 128.348C56.2421 123.894 56.212 118.989 56.1819 114.264C56.1518 108.486 56.4527 103.401 57.1449 98.7963C57.9875 93.1387 59.2815 89.1062 61.2977 85.796C61.9598 84.6825 62.5917 83.87 63.2538 83.1779C63.645 82.7866 63.976 82.5158 64.2469 82.3352C64.277 82.3051 64.3372 82.2751 64.3973 82.2751C64.9089 82.0042 66.4738 81.1917 65.9923 79.687C65.7214 78.8745 65.0293 78.4231 64.5478 78.1222C64.4876 78.062 64.3973 78.0319 64.3372 78.0018C63.9159 77.7009 63.5547 77.3698 63.1635 76.9786C62.4714 76.2865 61.8394 75.4439 61.1774 74.4207C58.5292 70.3882 57.3555 65.483 56.6333 61.6912C55.7606 57.1472 55.1888 52.272 54.7976 46.3136C54.1355 35.3897 55.3393 26.3015 58.5592 18.4773C60.3348 14.1138 62.682 10.4424 65.5108 7.55342C67.0155 6.01866 68.7609 4.66446 70.8674 3.43063C71.5595 3.03942 71.9508 2.28709 71.8605 1.56485C71.7702 0.872705 71.2887 0.300933 70.5665 0.0601866C70.0248 0.0300933 69.5433 0 69.1822 0C69.0317 0 68.8512 0 68.7007 0C68.5803 0 68.4599 0 68.3396 0H68.2794C67.9483 0 67.6173 0 67.2863 0C66.2029 0 65.24 0.0300933 64.277 0.0902799C59.0106 0.421306 54.3161 1.7755 50.3438 4.06259C49.4109 4.60427 48.4479 5.23623 47.3946 6.04875C46.8229 6.47006 46.4016 6.83118 46.0103 7.22239C45.7997 7.43304 45.6191 7.67379 45.4687 7.85435C45.4386 7.91454 45.4085 7.94463 45.3483 8.00482C45.2279 7.91454 45.1376 7.79416 45.0474 7.70388C44.8969 7.55342 44.7464 7.40295 44.5659 7.25248C43.6029 6.43996 42.5797 5.71772 41.5264 5.05567C39.3296 3.70147 36.9824 2.6783 34.5147 2.01625C32.2878 1.41438 29.8803 1.08336 26.7205 0.932892C25.4566 0.872705 24.3131 0.842612 23.1996 0.842612H22.7482C22.2968 0.842612 21.8454 0.842612 21.394 0.872705H20.6417C20.5514 0.872705 20.4611 0.872705 20.401 0.872705C20.0398 0.872705 19.5583 0.902799 19.1069 1.11345C18.5051 1.38429 18.1139 1.89588 18.0838 2.49774C18.0537 3.18989 18.4148 3.82185 19.137 4.27325C19.438 4.45381 19.7389 4.60427 20.0097 4.72465C20.2204 4.81493 20.431 4.9353 20.6116 5.02558C21.5445 5.56726 22.4774 6.19922 23.3802 6.92146C31.1744 13.0304 34.4545 21.8778 35.8388 28.2576C36.7115 32.2299 37.1629 36.6837 37.2532 42.2811C37.3435 47.6678 37.1629 52.8739 36.6814 57.749C36.4106 60.3972 36.0495 62.9552 35.568 65.3626C35.1768 67.3789 34.605 69.997 33.7022 72.4947C32.9499 74.5712 31.8966 76.2263 30.6327 77.4601C30.2114 77.8513 29.8202 78.1824 29.4289 78.4532C29.3086 78.5435 29.1882 78.6037 29.0076 78.6939C28.6465 78.9046 28.1951 79.1754 27.8039 79.5667C27.4127 79.988 27.2321 80.5296 27.2923 81.1014C27.4428 82.1547 28.466 82.7265 28.9474 82.9973L28.9775 83.0274C30.2114 83.7195 31.2947 84.9534 32.4082 86.8492C33.4614 88.6548 34.3642 90.7313 35.1166 93.0184C36.7416 98.0138 37.4638 103.31 37.8852 107.373C38.4268 112.669 38.6375 117.906 38.5171 122.901C38.3666 128.348 37.6444 133.103 36.3203 137.436C34.8156 142.401 32.6188 146.314 29.8502 149.082C28.3757 150.557 26.54 151.851 24.4635 152.904C24.0121 153.145 23.5006 153.385 23.0191 153.596L22.9288 153.626C22.2667 153.867 21.2737 154.228 21.0329 155.161C20.9125 155.643 21.0028 156.154 21.3338 156.575C21.8454 157.207 22.5978 157.237 22.8686 157.237H22.9288C23.2598 157.268 23.5908 157.268 23.9219 157.268C24.5839 157.268 25.2761 157.268 26.0585 157.237C28.4058 157.117 31.1743 156.937 33.9128 156.425C36.5009 155.943 38.9685 155.131 41.2556 153.957C43.4825 152.844 45.589 151.399 47.5752 149.684C47.6956 149.564 47.846 149.443 47.9664 149.323C47.9965 149.293 47.9965 149.293 48.0266 149.263C48.147 149.353 48.2673 149.443 48.3576 149.503C49.14 150.045 49.9526 150.436 50.7651 150.858C51.0961 151.008 51.4271 151.189 51.7281 151.339C55.7907 153.506 60.6959 155.943 66.1127 157.418C68.7609 158.14 71.4091 158.682 73.6661 159.103C74.2679 159.224 74.8698 159.344 75.4717 159.434L75.7425 159.494C75.8629 159.525 75.9833 159.525 76.0735 159.555C76.0735 159.615 76.0735 159.705 76.0735 159.765C76.0735 160.367 76.1036 160.969 76.1036 161.571V161.721C76.1337 163.045 76.0434 164.129 75.8328 165.182C75.6221 166.296 75.3212 167.499 74.93 168.853C74.2078 171.381 73.4554 173.698 72.5827 175.865C70.8975 180.169 68.7007 184.442 65.8719 188.956C64.6983 190.822 63.3441 192.838 61.5987 195.305C61.4783 195.486 61.3579 195.636 61.2375 195.817C61.057 196.088 60.8463 196.329 60.6658 196.599C60.1241 197.382 60.1241 198.044 60.2144 198.465C60.3347 198.977 60.6658 199.428 61.1473 199.699C61.4783 199.91 61.8695 200 62.2607 200C63.0732 200 63.7654 199.579 64.2469 199.278C64.3372 199.218 64.4575 199.157 64.5478 199.097C69.2123 196.75 73.5156 193.861 77.3676 190.521C78.3907 189.648 79.3537 188.745 80.1963 187.993L82.032 186.308C84.0784 187.15 86.2451 187.993 88.5622 188.715C93.7082 190.31 98.8241 191.604 103.82 192.627C109.567 193.771 114.743 194.342 119.709 194.403C122.477 194.433 125.186 194.282 127.714 193.981C130.121 193.68 132.679 193.139 135.568 192.356C146.251 189.407 155.279 184.863 162.381 178.844C165.932 175.835 168.911 172.344 171.229 168.462C172.372 166.566 173.395 164.52 174.268 162.413C174.689 161.39 175.08 160.307 175.442 159.254C175.592 158.802 175.743 158.321 175.863 157.869C176.043 157.268 176.224 156.666 176.405 156.124C177.037 154.379 177.969 152.994 179.173 152.001C179.444 151.76 179.775 151.52 180.106 151.279L180.257 151.189C180.738 150.888 181.52 150.376 181.761 149.503C182.122 148.24 181.129 147.457 180.768 147.156ZM120.16 60.8185C125.366 61.6311 129.579 63.0755 133.1 65.2423C133.823 65.6937 134.695 66.2955 135.327 67.0479C135.869 67.74 136.29 68.6127 136.501 69.5757C136.892 71.3512 136.471 73.3073 135.387 74.9925C134.846 75.805 134.184 76.5573 133.371 77.1893C133.01 77.4902 132.619 77.7611 132.198 78.0018C132.077 78.062 131.927 78.1523 131.806 78.2125C131.415 78.393 130.964 78.6338 130.572 78.9648C130.151 79.356 129.941 79.8977 130.091 80.4394C130.332 81.4625 131.385 81.7635 132.137 81.9741L132.228 82.0042C133.311 82.3954 134.334 82.8769 135.237 83.4487C136.471 84.2311 138.096 85.5853 138.818 87.4812C139.42 89.1062 139.209 91.0322 138.216 92.6271C137.223 94.2221 135.688 95.3957 133.792 96.7499C131.927 98.074 129.85 99.2778 127.653 100.241C123.561 102.076 118.866 103.31 113.69 103.882C111.253 104.153 108.725 104.303 105.956 104.303C105.324 104.303 104.722 104.303 104.09 104.303C101.502 104.243 98.7639 104.153 95.9953 103.792C97.8611 94.0716 97.7407 83.87 95.6342 74.18L94.0693 68.402C93.9489 68.0409 93.8286 67.6497 93.7082 67.2585C93.3471 66.0849 92.986 64.851 92.5346 63.6473C92.7753 63.557 92.986 63.4667 93.2267 63.3464C93.4976 63.226 93.7684 63.1357 94.0392 63.0154C95.2731 62.5339 96.537 62.1426 97.5301 61.8718C99.9074 61.2098 102.405 60.7583 104.933 60.4574C110.019 59.9458 115.195 60.0361 120.16 60.8185ZM90.9396 63.3765C90.9396 63.3765 90.9095 63.2862 90.9095 63.3464C90.9396 63.3765 90.9396 63.3765 90.9396 63.3765ZM119.709 175.053H119.438C114.743 175.053 109.778 174.421 104.241 173.157C102.345 172.735 100.329 172.164 98.0717 171.441C97.1388 171.141 96.2059 170.87 95.2731 170.599C94.6411 170.418 93.979 170.208 93.317 169.997C94.2499 167.83 94.9119 165.904 95.4235 164.039C95.7846 162.684 96.1157 161.33 96.3263 160.307C96.3564 160.126 96.4166 159.946 96.4467 159.765C96.537 159.404 96.6272 159.043 96.6874 158.652C98.0416 158.592 99.3958 158.562 100.75 158.562C104.602 158.562 107.521 158.832 110.169 159.494C113.359 160.277 117.813 161.932 120.732 165.333C121.334 166.025 121.815 166.777 122.176 167.559L122.237 167.71C122.568 168.432 123.2 169.907 124.704 170.027C124.764 170.027 124.825 170.027 124.885 170.027C125.216 170.027 126.871 169.907 126.931 167.409C126.931 166.958 126.901 166.536 126.901 166.145C126.871 165.874 126.871 165.603 126.871 165.333C126.841 162.925 126.811 160.187 126.179 157.538C125.517 154.679 124.433 152.242 122.929 150.346C122.748 150.105 122.507 149.895 122.297 149.684C122.116 149.503 121.815 149.203 121.725 149.052C121.815 148.872 121.996 148.631 122.176 148.42C122.297 148.27 122.417 148.119 122.507 147.969C122.899 147.397 123.26 146.795 123.591 146.163C124.764 143.966 125.577 141.438 126.058 138.7C126.51 136.052 126.51 133.434 126.48 130.785C126.48 130.665 126.48 130.545 126.48 130.424C126.48 129.943 126.48 129.371 126.359 128.799C126.149 127.866 125.396 126.933 124.343 126.964C123.832 126.964 123.32 127.204 122.959 127.626C122.447 128.228 122.387 128.95 122.357 129.371C122.357 129.461 122.357 129.522 122.327 129.582C122.267 130.033 122.116 130.515 121.906 130.996C120.582 134.096 117.632 136.804 113.57 138.61C111.644 139.482 109.507 140.144 107.07 140.626C104.933 141.077 102.766 141.258 100.509 141.469L99.4861 141.559C98.8542 141.619 98.2222 141.679 97.5902 141.769C97.5902 141.769 97.5902 141.769 97.5902 141.739C97.5301 140.987 97.4398 140.295 97.3495 139.663C97.2592 139.001 97.1388 138.369 97.0185 137.767C96.8981 137.105 96.7777 136.503 96.7175 135.871C96.537 134.397 96.3263 133.133 96.1157 131.929C95.8749 130.545 95.574 129.16 95.3332 128.017C95.3032 127.866 95.2731 127.716 95.2129 127.565C95.1828 127.445 95.1527 127.295 95.1226 127.174C95.1527 127.174 95.1527 127.174 95.1828 127.144C97.5 126.422 99.9977 125.7 102.495 125.128C107.521 123.984 112.607 123.382 117.662 123.352H118.054C123.109 123.352 128.045 123.894 132.739 125.008C135.147 125.579 137.554 126.302 139.931 127.174C141.827 127.896 144.295 128.859 146.612 130.153C150.254 132.17 152.872 135.059 154.015 138.249C154.798 140.475 154.767 142.161 153.865 143.455C153.413 144.117 152.721 144.779 151.758 145.411C151.337 145.712 150.855 145.952 150.344 146.193C150.013 146.374 149.682 146.554 149.321 146.735C149.02 146.885 148.358 147.277 148.147 148.029C148.027 148.45 148.087 148.871 148.297 149.263C148.689 149.925 149.381 150.105 149.682 150.196L149.862 150.226C150.103 150.286 150.344 150.346 150.524 150.436C151.578 150.858 152.631 151.52 153.594 152.332C155.279 153.777 156.182 155.733 156.031 157.568C156.031 157.629 156.031 157.689 156.001 157.749C155.911 158.742 155.61 159.675 155.129 160.427L154.948 160.698C154.406 161.601 153.865 162.474 153.203 163.136C151.818 164.55 150.073 165.844 147.696 167.259C146.642 167.89 145.499 168.462 144.415 169.004C144.084 169.154 143.783 169.335 143.452 169.485C142.61 169.907 141.827 170.298 141.015 170.659C138.908 171.562 136.591 172.374 134.093 173.036C129.369 174.361 124.464 175.023 119.709 175.053ZM157.596 157.899C157.536 158.471 157.717 156.816 157.596 157.899ZM178.511 147.126C179.083 147.577 178.18 146.795 178.511 147.126Z" fill="black"/>
</svg>
