<svg width="200" height="201" viewBox="0 0 200 201" fill="none" xmlns="http://www.w3.org/2000/svg">
<g clip-path="url(#clip0_5_200198)">
<path d="M191.938 136.255H190.701V135.379H194.23V136.255H192.981V139.977H191.95V136.255H191.938Z" fill="#00483A"/>
<path d="M198.931 138.213C198.905 137.659 198.892 137.002 198.892 136.333C198.738 136.925 198.558 137.569 198.377 138.11L197.811 139.9H196.999L196.51 138.136C196.355 137.595 196.214 136.951 196.098 136.345H196.085C196.059 136.964 196.033 137.672 196.008 138.252L195.917 139.99H194.951L195.248 135.405H196.626L197.076 136.951C197.231 137.479 197.36 138.045 197.463 138.586H197.489C197.617 138.058 197.772 137.453 197.926 136.938L198.403 135.405H199.768L200.013 139.99H199.008L198.931 138.226V138.213Z" fill="#00483A"/>
<path d="M165.394 148.529C170.378 136.925 170.03 130.125 170.03 130.125C170.03 130.112 170.03 130.099 170.03 130.086C151.471 124.484 134.033 142.386 133.853 142.579L131.857 144.678L130.44 142.154C98.2034 84.9706 35.16 98.6997 34.5289 98.8414L29.4675 100.001L32.2493 95.6087C39.4874 84.1721 47.6399 78.75 52.7143 76.3029C44.008 71.4604 10.87 65.8966 10.87 65.8966H60.9827C38.8692 56.3531 2.13794 52.103 0 52.0773L108.674 52C118.54 52.0773 130.839 52.3477 143.744 56.0183C144.182 56.1213 188.125 66.3345 197.643 111.759L197.72 112.146C197.72 112.146 194.72 140.08 165.381 148.516L165.394 148.529Z" fill="#BABCBE"/>
<path d="M163.256 99.7688C167.493 102.499 173.405 101.443 173.379 101.636C169.193 93.7413 156.726 88.1904 156.726 88.1904C156.726 88.1904 161.144 92.6337 163.243 99.7688H163.256Z" fill="white"/>
<path d="M183.437 117.323C184.429 115.687 184.687 113.665 184.687 113.665C184.687 113.665 184.493 111.733 183.953 110.381C183.953 110.381 184.455 113.794 180.746 115.662C180.746 115.662 182.008 115.687 182.703 116.151C182.703 116.151 183.437 116.898 183.437 117.31V117.323Z" fill="white"/>
<path d="M27.8577 54.2152C27.8577 54.2152 53.6417 57.8342 70.23 68.0345H31.0002C31.0002 68.0345 48.5931 69.7732 58.0721 76.509C58.0721 76.509 44.9612 79.4841 34.0396 96.755C34.0396 96.755 98.8603 81.7894 132.295 141.111C132.295 141.111 151.446 120.942 172.091 128.438C172.091 128.438 172.954 134.864 169.039 145.026C191.384 137.363 195.557 112.21 195.557 112.21C186.219 67.5966 143.293 58.1047 143.293 58.1047C130.504 54.4728 114.032 53.9448 106.15 54.1379L27.8577 54.2152ZM119.506 94.1405C119.506 94.1405 128.238 98.7255 133.93 110.304C118.14 96.9353 95.1382 92.067 95.1382 92.067C115.204 101.185 122.79 112.789 126.641 122.565C112.216 103.929 84.4872 88.5123 50.5121 89.8003C50.5121 89.8003 70.1012 72.7612 103.059 81.6091C97.8557 77.7325 78.4855 71.7823 78.4855 71.7823H96.6966C95.164 70.6103 83.4182 61.9298 62.5798 59.8048C62.5798 59.8048 91.0942 59.8176 109.769 59.8048C109.769 59.8048 125.52 59.3282 141.722 63.5268C161.466 69.1421 175.594 80.3212 183.953 96.7936C183.953 96.7936 187.005 102.37 181.119 104.019C178.659 104.714 177.423 102.216 177.423 102.216C178.531 102.126 179.072 101.688 179.29 101.108C173.005 91.0238 156.507 73.2248 118.437 73.7915C118.295 73.6112 149.359 83.0516 161.492 103.98C161.62 104.328 157.486 107.702 150.364 106.131C150.364 106.131 156.198 110.69 164.325 111.978C159.843 114.992 155.013 115.262 151.755 116.576C140.705 97.7596 119.493 94.089 119.493 94.089L119.506 94.1405Z" fill="#00483A"/>
<path d="M141.748 63.5526C125.546 59.354 109.794 59.8305 109.794 59.8305C91.1197 59.8563 62.6053 59.8305 62.6053 59.8305C83.4309 61.9556 95.1895 70.6361 96.7222 71.8081H78.5111C78.5111 71.8081 97.8813 77.7583 103.084 81.6349C70.1268 72.7869 50.5376 89.826 50.5376 89.826C84.5127 88.5252 112.229 103.954 126.666 122.591C122.828 112.815 115.229 101.198 95.1638 92.0927C95.1638 92.0927 118.166 96.961 133.956 110.33C128.276 98.7512 119.531 94.1663 119.531 94.1663C119.531 94.1663 140.743 97.8368 151.793 116.653C155.065 115.327 159.894 115.056 164.363 112.055C156.237 110.767 150.402 106.208 150.402 106.208C157.525 107.78 161.659 104.405 161.53 104.057C149.398 83.1289 118.333 73.6885 118.475 73.8688C156.546 73.2892 173.044 91.0882 179.329 101.185C179.11 101.765 178.569 102.203 177.461 102.293C177.461 102.293 178.711 104.792 181.158 104.096C187.043 102.448 183.991 96.8709 183.991 96.8709C175.633 80.3856 161.504 69.2065 141.76 63.6041L141.748 63.5526Z" fill="white"/>
<path d="M163.256 99.7688C167.493 102.499 173.405 101.443 173.379 101.636C169.193 93.7413 156.726 88.1904 156.726 88.1904C156.726 88.1904 161.144 92.6337 163.243 99.7688H163.256Z" fill="white"/>
<path d="M183.437 117.323C184.429 115.687 184.687 113.665 184.687 113.665C184.687 113.665 184.493 111.733 183.953 110.381C183.953 110.381 184.455 113.794 180.746 115.662C180.746 115.662 182.008 115.687 182.703 116.151C182.703 116.151 183.437 116.898 183.437 117.31V117.323Z" fill="white"/>
<path d="M186.567 113.124C185.717 109.853 185.537 108.99 184.352 105.989C181.506 110.742 176.946 113.008 171.241 114.657C161.44 117.568 158.761 118.778 158.761 118.778C158.761 118.778 169.966 118.559 179.239 123.453C179.574 124.651 179.909 126.519 179.522 128.463C186.503 121.483 186.181 115.365 186.567 113.124ZM183.965 110.381C184.493 111.72 184.7 113.665 184.7 113.665C184.7 113.665 184.442 115.687 183.45 117.323C183.45 116.898 182.716 116.164 182.716 116.164C182.021 115.7 180.759 115.674 180.759 115.674C184.468 113.807 183.965 110.394 183.965 110.394V110.381Z" fill="#BABCBE"/>
</g>
<defs>
<clipPath id="clip0_5_200198">
<rect width="200" height="96.5291" fill="white" transform="translate(0 52)"/>
</clipPath>
</defs>
</svg>
